<?xml version="1.0" standalone="no"?>
<!DOCTYPE svg PUBLIC "-//W3C//DTDSVG20010904//EN"  "http://www.w3.org/TR/2001/REC-SVG-20010904/DTD/svg10.dtd">
<svg version="1.0" xmlns="http://www.w3.org/2000/svg" width="589.000000pt" height="529.000000pt" viewBox="0 0 589.000000 529.000000" preserveAspectRatio="xMidYMid meet">

    <g transform="translate(0.000000,529.000000) scale(0.100000,-0.100000)" fill="#FE7F2D" stroke="none">
        <path d="M2824 5201 c-293 -84 -440 -429 -296 -696 34 -63 43 -56 -93 -80
                                                                        -275 -50 -569 -152 -825 -287 -496 -261 -937 -701 -1192 -1188 -177 -340 -281
                                                                        -692 -319 -1081 -9 -99 -9 -137 0 -175 16 -64 62 -135 109 -167 82 -57 81 -57
                                                                        628 -57 l504 0 0 145 0 145 -480 0 -481 0 7 78 c79 951 700 1791 1592 2157
                                                                        199 81 400 134 652 171 177 26 522 24 705 -5 282 -45 519 -119 760 -236 265
                                                                        -129 482 -283 686 -485 409 -407 655 -895 739 -1467 11 -76 20 -155 20 -175
                                                                        l0 -38 -625 0 -624 0 -3 612 c-3 457 -7 622 -16 650 -20 58 -73 129 -125 169
                                                                        -97 73 -34 69 -1188 69 -1116 0 -1080 1 -1165 -53 -59 -37 -100 -85 -131 -152
                                                                        l-28 -60 0 -1335 0 -1335 28 -60 c36 -78 95 -137 171 -172 l61 -28 1065 0
                                                                        1065 0 67 33 c77 38 130 92 167 171 l26 56 3 428 3 427 -146 0 -145 0 0 -398
                                                                        c0 -374 -1 -400 -18 -415 -17 -16 -102 -17 -1020 -17 -989 0 -1002 0 -1022 20
                                                                        -20 20 -20 33 -20 1293 0 1221 1 1275 18 1290 17 16 102 17 1024 17 961 0
                                                                        1006 -1 1021 -18 16 -17 17 -83 17 -751 l0 -732 808 3 c904 3 839 -2 925 77
                                                                        47 44 84 114 90 174 6 52 -11 234 -34 372 -77 457 -263 882 -555 1267 -107
                                                                        141 -371 403 -520 515 -368 279 -768 458 -1208 543 -56 11 -110 22 -122 25
                                                                        -20 4 -19 7 13 73 159 330 -80 704 -447 701 -36 0 -92 -8 -126 -18z m238 -294
                                                                        c88 -48 124 -174 76 -267 -13 -26 -41 -57 -66 -75 -38 -26 -52 -30 -112 -30
                                                                        -60 0 -74 4 -112 30 -62 43 -90 103 -86 180 10 153 165 237 300 162z"/>
        <path d="M3862 3737 c-49 -52 -20 -93 93 -136 95 -37 95 -37 129 -10 31 24 35
                                                                        67 9 97 -23 26 -136 72 -178 72 -20 0 -39 -8 -53 -23z"/>
        <path d="M4210 3570 c-12 -12 -20 -33 -20 -54 0 -32 7 -40 97 -108 125 -94
                                                                        268 -231 363 -349 108 -134 114 -139 154 -139 40 0 66 28 66 72 0 52 -231 311
                                                                        -415 466 -156 131 -204 153 -245 112z"/>
        <path d="M2210 2435 l0 -145 750 0 750 0 0 145 0 145 -750 0 -750 0 0 -145z"/>
        <path d="M2210 1615 l0 -145 750 0 750 0 0 145 0 145 -750 0 -750 0 0 -145z"/>
        <path d="M2210 885 l0 -145 590 0 590 0 0 145 0 145 -590 0 -590 0 0 -145z"/>
    </g>
</svg>
