<?xml version="1.0" standalone="no"?>
<!DOCTYPE svg PUBLIC "-//W3C//DTD SVG 20010904//EN"
 "http://www.w3.org/TR/2001/REC-SVG-20010904/DTD/svg10.dtd">
<svg version="1.0" xmlns="http://www.w3.org/2000/svg"
 width="811.000000pt" height="693.000000pt" viewBox="0 0 811.000000 693.000000"
 preserveAspectRatio="xMidYMid meet">

<g transform="translate(0.000000,693.000000) scale(0.100000,-0.100000)"
fill="#213234"  stroke="none">
<path d="M2455 5911 c-3 -6 -13 -10 -23 -10 -38 -1 -52 -5 -52 -13 0 -4 -9 -8
-20 -8 -34 0 -85 -34 -75 -50 2 -4 -10 -6 -28 -4 -18 1 -41 -4 -52 -10 -24
-15 -75 -30 -92 -27 -7 1 -13 -3 -13 -9 0 -5 -7 -10 -15 -10 -8 0 -31 -9 -52
-19 -42 -21 -139 -66 -220 -101 -29 -13 -53 -27 -53 -32 0 -4 -9 -8 -19 -8
-11 0 -23 -4 -26 -10 -3 -5 -28 -20 -55 -32 -28 -13 -50 -26 -50 -30 0 -3 -16
-12 -35 -18 -19 -6 -35 -15 -35 -20 0 -4 -11 -11 -24 -14 -14 -3 -40 -20 -58
-36 -18 -17 -38 -30 -45 -30 -7 0 -26 -13 -43 -30 -17 -16 -35 -30 -40 -30 -5
0 -13 -6 -17 -14 -4 -7 -27 -25 -49 -39 -23 -14 -44 -30 -45 -34 -2 -4 -24
-21 -49 -38 -25 -16 -69 -51 -98 -78 -28 -26 -57 -45 -62 -42 -6 3 -10 -1 -10
-10 0 -22 -63 -85 -84 -85 -9 0 -16 -4 -16 -9 0 -5 -16 -26 -35 -47 -19 -21
-35 -34 -35 -30 0 4 -7 1 -15 -8 -8 -8 -15 -20 -15 -27 0 -7 -3 -10 -6 -6 -8
7 -69 -57 -143 -148 -31 -38 -66 -81 -79 -95 -12 -14 -28 -37 -35 -52 -6 -16
-15 -28 -18 -28 -4 0 -10 -11 -13 -25 -4 -14 -14 -34 -24 -45 -35 -38 -42 -49
-42 -65 0 -9 -13 -40 -30 -70 -16 -30 -30 -63 -30 -73 0 -11 -6 -25 -14 -31
-8 -7 -18 -27 -22 -44 -3 -18 -11 -41 -17 -52 -6 -11 -12 -23 -13 -27 -1 -5
-2 -9 -3 -10 -2 -2 -4 -14 -7 -27 -2 -14 -8 -29 -13 -35 -5 -6 -12 -33 -16
-61 -4 -27 -13 -58 -21 -69 -8 -11 -14 -39 -14 -62 0 -23 -4 -44 -10 -46 -5
-1 -14 -45 -20 -97 -6 -51 -15 -102 -21 -112 -7 -13 -6 -26 2 -41 20 -37 41
-127 48 -203 4 -46 9 -64 14 -52 4 11 4 59 1 108 -4 55 -3 94 4 101 5 7 13 33
16 57 3 25 10 47 15 50 7 5 18 30 26 61 1 3 10 23 20 45 9 22 19 64 21 94 2
30 9 58 15 62 6 3 11 10 12 15 1 5 6 8 11 6 5 -2 3 5 -5 14 -9 12 -9 15 -2 10
8 -4 13 -1 13 9 0 10 5 13 12 9 6 -4 8 -3 4 4 -3 6 2 19 13 29 10 10 36 41 56
68 21 28 42 52 47 53 4 2 8 7 8 12 0 4 27 34 61 66 34 33 68 67 78 77 9 10 33
28 55 39 21 11 68 38 105 61 57 37 101 58 196 98 44 18 135 38 232 50 234 28
466 -17 713 -141 109 -54 171 -92 355 -216 180 -121 239 -152 313 -164 115
-19 290 31 343 98 19 25 21 35 15 112 -8 108 3 146 89 310 153 292 160 308
160 390 0 64 -5 84 -30 135 -75 150 -250 261 -525 330 -92 24 -213 44 -224 38
-4 -3 -11 0 -15 6 -4 6 -25 13 -47 15 -21 2 -66 9 -99 15 -208 42 -270 82
-241 153 25 58 164 182 245 218 31 14 79 39 106 55 28 17 57 33 65 37 11 5 9
7 -7 7 -12 1 -24 -3 -28 -8z"/>
<path d="M4965 4536 c-77 -29 -194 -76 -260 -103 -329 -139 -521 -213 -740
-285 -209 -68 -345 -104 -745 -198 -95 -22 -227 -83 -436 -201 -177 -100 -285
-141 -376 -143 -65 -1 -68 0 -105 37 -22 20 -45 37 -52 37 -7 0 -63 -20 -124
-44 -62 -24 -166 -61 -232 -81 -288 -87 -369 -116 -511 -183 -114 -54 -169
-74 -221 -82 -88 -12 -95 -15 -166 -62 -68 -46 -112 -66 -164 -74 -40 -6 -83
-28 -83 -43 0 -5 7 -28 15 -51 31 -87 22 -99 -110 -145 -148 -52 -211 -95
-239 -165 -36 -90 26 -270 103 -299 52 -19 82 -21 170 -11 108 12 234 52 377
120 59 27 117 50 129 50 30 0 117 -94 188 -201 98 -149 117 -162 269 -185 57
-9 162 -27 233 -41 72 -14 178 -34 236 -43 186 -31 291 -71 346 -131 89 -98
71 -89 176 -89 80 0 103 -4 148 -25 36 -16 57 -21 64 -14 7 7 5 13 -5 19 -31
19 37 26 175 19 77 -4 235 -13 352 -20 306 -17 397 -6 610 75 215 81 318 104
488 109 176 5 189 9 348 115 64 42 132 79 174 92 37 12 86 33 108 45 22 13 83
40 135 60 122 48 191 83 282 142 77 50 141 78 372 163 76 29 194 78 262 110
67 32 140 64 161 71 21 7 42 17 48 21 5 4 17 8 26 8 24 0 127 47 178 81 53 36
181 102 181 93 0 -4 7 -1 15 6 8 6 19 9 24 6 5 -4 12 -2 16 4 3 5 21 10 38 10
22 0 49 13 86 40 29 22 58 40 65 40 6 0 29 12 50 26 55 38 89 119 122 299 2
11 70 88 152 170 124 126 272 295 272 311 0 15 -27 -7 -111 -91 -51 -52 -113
-109 -137 -126 -24 -17 -68 -53 -98 -79 -78 -68 -135 -93 -193 -85 -25 3 -91
8 -147 11 l-101 6 -81 -41 c-45 -23 -90 -41 -100 -41 -13 0 -31 -22 -57 -71
-43 -78 -108 -148 -170 -184 -90 -53 -337 -92 -640 -100 -195 -6 -234 -10
-345 -36 -95 -23 -456 -133 -467 -143 -1 -1 56 -73 108 -133 25 -30 30 -29 79
12 23 19 48 35 56 35 28 0 79 -33 121 -78 24 -25 45 -43 48 -40 3 2 -11 36
-31 74 -45 86 -43 133 7 177 28 26 36 28 83 22 73 -9 132 -9 201 0 52 6 71 4
133 -19 l72 -26 0 30 c0 16 -4 32 -10 35 -5 3 -10 15 -10 25 0 14 11 22 43 30
23 6 47 13 54 15 6 2 28 -1 47 -6 29 -8 45 -6 82 11 68 29 95 26 133 -15 17
-19 38 -35 46 -35 18 0 18 1 5 36 -8 21 -7 31 6 45 22 24 45 24 94 -1 22 -11
47 -20 56 -20 29 0 152 40 219 71 44 20 79 29 116 29 45 0 58 5 95 35 32 27
56 37 94 42 43 5 50 4 44 -10 -3 -9 -28 -30 -54 -47 -27 -17 -54 -38 -61 -46
-10 -12 -31 -14 -93 -12 -69 3 -85 0 -111 -18 -73 -52 -133 -74 -197 -74 -36
1 -74 7 -88 15 -30 17 -66 19 -76 4 -3 -6 18 -33 47 -60 52 -48 53 -51 34 -65
-11 -8 -26 -12 -35 -8 -8 3 -41 8 -72 11 -46 5 -63 2 -91 -16 -41 -25 -158
-29 -222 -7 -38 14 -40 13 -46 -7 -4 -18 -12 -22 -45 -21 -21 1 -61 8 -88 15
-45 12 -51 11 -92 -10 -48 -26 -55 -25 -159 14 -102 39 -101 39 -124 16 -32
-32 -26 -74 23 -170 24 -47 47 -97 51 -110 7 -23 6 -24 -36 -18 -81 12 -115
26 -127 52 -14 29 -28 31 -92 8 -63 -22 -89 -10 -163 78 -32 38 -65 69 -72 69
-27 0 -34 -68 -11 -112 16 -30 12 -38 -20 -38 -17 0 -25 -7 -30 -25 -7 -29 -8
-29 -32 -14 -14 9 -26 8 -51 -5 -17 -9 -41 -14 -51 -11 -13 4 -22 -1 -30 -15
-15 -28 -25 -25 -50 15 -20 32 -26 35 -69 35 -51 0 -77 -19 -117 -85 -40 -66
-65 -85 -114 -85 -48 0 -159 25 -173 39 -11 11 6 21 62 36 42 10 46 14 46 41
0 25 -4 29 -31 32 -18 2 -60 -4 -94 -13 -58 -15 -100 -13 -100 4 0 9 238 91
264 91 40 0 1 19 -61 30 -160 27 -479 165 -571 246 -78 68 -95 109 -90 209 6
118 54 210 197 378 186 220 294 283 766 451 333 118 548 180 696 201 168 23
179 25 179 34 0 17 -39 41 -165 103 -107 52 -126 63 -142 81 -9 9 -23 17 -32
17 -9 -1 -79 -25 -156 -54z m-2189 -1952 c24 -14 44 -32 44 -40 0 -19 -50 -18
-77 1 -20 14 -28 14 -84 -5 -71 -23 -105 -25 -163 -8 -76 21 -75 22 129 67 70
16 105 12 151 -15z m103 -145 c57 -12 65 -20 57 -55 -8 -31 -30 -31 -92 2 -59
31 -68 39 -60 53 9 14 32 14 95 0z"/>
<path d="M176 2899 c22 -45 25 -58 19 -115 -5 -44 -3 -74 5 -95 21 -50 27 -16
22 129 l-4 132 -34 0 -34 0 26 -51z"/>
<path d="M204 2407 c-7 -7 -30 -28 -52 -47 -36 -30 -41 -41 -41 -75 0 -49 31
-171 47 -187 7 -7 12 -16 12 -20 0 -14 122 -181 168 -230 25 -27 53 -48 62
-48 10 0 31 -7 46 -15 16 -8 41 -15 56 -15 15 0 29 -4 33 -9 3 -5 18 -12 34
-16 26 -5 72 -46 161 -140 60 -63 154 -119 374 -220 32 -15 77 -33 99 -41 22
-8 68 -32 101 -53 62 -39 147 -81 164 -81 5 0 23 -7 38 -15 16 -8 37 -15 47
-15 10 0 33 -6 52 -14 18 -8 36 -12 39 -9 11 11 -56 44 -218 109 -279 112
-396 178 -626 349 -52 39 -147 107 -210 150 -252 172 -308 223 -351 320 -29
67 -35 145 -15 239 9 43 16 82 16 87 0 13 -23 10 -36 -4z"/>
<path d="M7360 2070 c-14 -16 -29 -30 -33 -30 -4 0 -20 -12 -35 -27 -45 -45
-88 -80 -113 -94 -13 -6 -30 -19 -39 -27 -31 -32 -241 -161 -415 -256 -99 -54
-297 -169 -440 -254 -298 -178 -458 -271 -565 -329 -41 -22 -106 -57 -145 -78
-88 -48 -414 -211 -520 -260 -696 -323 -896 -381 -1185 -345 -165 21 -370 62
-555 111 -293 79 -531 137 -625 154 -208 37 -258 47 -335 70 -44 14 -107 38
-140 55 -58 31 -192 128 -250 182 -16 15 -31 24 -33 19 -5 -16 99 -196 125
-216 32 -24 117 -53 155 -54 14 -1 28 -6 30 -12 6 -17 76 -31 193 -39 80 -5
145 -17 240 -45 72 -20 155 -44 185 -52 30 -8 75 -21 100 -28 25 -7 65 -18 90
-24 25 -6 68 -18 95 -26 70 -20 390 -96 445 -105 46 -7 106 -21 195 -46 72
-19 272 -38 336 -31 76 8 151 25 163 37 6 6 18 10 27 10 9 0 43 12 75 26 33
14 75 33 94 41 78 34 166 75 180 84 8 5 22 12 30 15 8 4 75 35 148 70 73 35
139 64 146 64 8 0 19 7 26 15 7 8 22 15 34 15 12 0 31 7 42 15 10 8 31 15 45
15 14 0 34 7 45 15 10 8 27 15 37 15 11 0 31 6 45 14 15 8 72 33 127 56 140
59 173 75 230 112 88 58 185 131 185 140 0 4 5 8 10 8 12 0 73 41 78 53 2 4 7
7 12 7 5 0 44 22 87 49 66 41 195 116 308 181 17 9 60 36 98 58 37 23 70 42
73 42 13 0 246 121 307 159 35 23 67 41 70 41 7 0 164 103 184 120 7 5 15 10
18 10 9 0 63 40 150 110 84 68 106 89 162 157 39 48 42 77 3 33z"/>
<path d="M2860 1866 c0 -2 7 -7 16 -10 8 -3 12 -2 9 4 -6 10 -25 14 -25 6z"/>
</g>
</svg>
