<!DOCTYPE svg PUBLIC "-//W3C//DTDSVG1.1//EN" "http://www.w3.org/Graphics/SVG/1.1/DTD/svg11.dtd">

<!-- Uploaded to: SVG Repo, www.svgrepo.com, Transformed by: SVG Repo Mixer Tools -->
<svg width="32px" height="32px" viewBox="0 0 24 24" fill="none" xmlns="http://www.w3.org/2000/svg" stroke="#213234">

    <g id="SVGRepo_bgCarrier" stroke-width="0"/>

    <g id="SVGRepo_tracerCarrier" stroke-linecap="round" stroke-linejoin="round"/>

    <g id="SVGRepo_iconCarrier">
        <path d="M12.5 11V12.5L11.5 13M15 8V10M9 8V10M9 20H5C4.44772 20 4 19.5523 4 19V15M20 15V19C20 19.5523 19.5523 20 19 20H15M20 9V5C20 4.44772 19.5523 4 19 4H15M4 9V5C4 4.44772 4.44772 4 5 4H9M9 16C9 16 10 17 12 17C14 17 15 16 15 16" stroke="#213234" stroke-width="1.5" stroke-linecap="round" stroke-linejoin="round"/>
    </g>

</svg>
